<?xml version="1.0" encoding="utf-8"?>
<!-- Generator: Adobe Illustrator 24.1.1, SVG Export Plug-In . SVG Version: 6.00 Build 0)  -->
<svg version="1.1" id="Layer_1" xmlns="http://www.w3.org/2000/svg" xmlns:xlink="http://www.w3.org/1999/xlink" x="0px" y="0px"
	 viewBox="0 0 512 512" style="enable-background:new 0 0 512 512;" xml:space="preserve">
<style type="text/css">
	.st0{fill:#FFFFFF;}
</style>
<path class="st0" d="M256,0C114.8,0,0,114.8,0,256s114.8,256,256,256s256-114.8,256-256S397.2,0,256,0z M256,469.3
	c-117.6,0-213.3-95.7-213.3-213.3S138.4,42.7,256,42.7S469.3,138.4,469.3,256S373.6,469.3,256,469.3z M341.3,256
	c0,47.1-38.2,85.3-85.3,85.3s-85.3-38.2-85.3-85.3s38.2-85.3,85.3-85.3S341.3,208.9,341.3,256z"/>
</svg>
