<?xml version="1.0" encoding="utf-8"?>
<!-- Generator: Adobe Illustrator 24.1.1, SVG Export Plug-In . SVG Version: 6.00 Build 0)  -->
<svg version="1.1" id="Layer_1" xmlns="http://www.w3.org/2000/svg" xmlns:xlink="http://www.w3.org/1999/xlink" x="0px" y="0px"
	 viewBox="0 0 512 512" style="enable-background:new 0 0 512 512;" xml:space="preserve">
<style type="text/css">
	.st0{fill:#FFFFFF;}
</style>
<path class="st0" d="M291.1,8.9c-4.9-4.1-11.3-5.7-17.5-4.6c-64,11.8-122.8,49.1-161.2,102.3h-5.8C47.8,106.6,0,154.5,0,213.3v85.4
	c0,58.8,47.9,106.7,106.7,106.7h5.8c38.4,53.2,97.2,90.5,161.2,102.3c1.3,0.2,2.6,0.4,3.9,0.4c4.9,0,9.8-1.7,13.7-4.9
	c4.9-4.1,7.7-10.1,7.7-16.4V25.3C298.8,19,296,13,291.1,8.9z M506.3,304.9c8.3,8.3,8.3,21.8,0,30.2c-4.2,4.2-9.6,6.3-15.1,6.3
	c-5.5,0-10.9-2.1-15.1-6.3l-48.9-48.9l-48.9,48.9c-4.2,4.2-9.6,6.3-15.1,6.3c-5.5,0-10.9-2.1-15.1-6.3c-8.3-8.3-8.3-21.8,0-30.2
	l48.9-48.9l-48.9-48.9c-8.3-8.3-8.3-21.8,0-30.2c8.3-8.3,21.8-8.3,30.2,0l48.9,48.9l48.9-48.9c8.3-8.3,21.8-8.3,30.2,0
	c8.3,8.3,8.3,21.8,0,30.2L457.4,256L506.3,304.9L506.3,304.9z"/>
</svg>
