<?xml version="1.0" encoding="utf-8"?>
<!-- Generator: Adobe Illustrator 24.1.1, SVG Export Plug-In . SVG Version: 6.00 Build 0)  -->
<svg version="1.1" id="Layer_1" xmlns="http://www.w3.org/2000/svg" xmlns:xlink="http://www.w3.org/1999/xlink" x="0px" y="0px"
	 viewBox="0 0 512 512" style="enable-background:new 0 0 512 512;" xml:space="preserve">
<style type="text/css">
	.st0{fill:#FFFFFF;}
</style>
<path class="st0" d="M505.7,475.6c8.3,8.3,8.3,21.8,0,30.2c-4.2,4.2-9.6,6.3-15.1,6.3c-5.5,0-10.9-2.1-15.1-6.3L6.3,36.4
	c-8.3-8.3-8.3-21.8,0-30.2s21.8-8.3,30.2,0l98.7,98.7C173.7,52.5,231.2,16.1,295,4.4c6.1-1.2,12.7,0.5,17.5,4.6
	c4.9,4.1,7.7,10.1,7.7,16.4V290l36,36c38.5-38.8,38.5-101.6-0.2-140.3c-8.3-8.3-8.3-21.8,0-30.2c8.3-8.3,21.8-8.3,30.2,0
	c55.3,55.3,55.4,145.2,0.2,200.6l30.7,30.7c70.7-74.3,69.7-192.2-3.2-265.2c-8.3-8.3-8.3-21.8,0-30.2c8.3-8.3,21.8-8.3,30.2,0
	c89.6,89.6,90.6,234.6,3.2,325.5L505.7,475.6L505.7,475.6z M0.2,213.3v85.3c0,58.8,47.9,106.7,106.7,106.7h27.1
	c38.5,53.4,96.6,90.4,161.1,102.3c1.3,0.2,2.6,0.4,3.9,0.4c4.9,0,9.8-1.7,13.7-4.9c4.9-4.1,7.7-10.1,7.7-16.4v-76.4L40.1,130.2
	C15.8,149.8,0.2,179.8,0.2,213.3z"/>
</svg>
