<?xml version="1.0" encoding="utf-8"?>
<!-- Generator: Adobe Illustrator 24.1.1, SVG Export Plug-In . SVG Version: 6.00 Build 0)  -->
<svg version="1.1" id="Filled" xmlns="http://www.w3.org/2000/svg" xmlns:xlink="http://www.w3.org/1999/xlink" x="0px" y="0px"
	 viewBox="0 0 512 512" style="enable-background:new 0 0 512 512;" xml:space="preserve">
<style type="text/css">
	.st0{fill:#FFFFFF;}
</style>
<path class="st0" d="M443.7,91.6c-8.8-7.8-22.3-7.1-30.1,1.7c-7.2,8.1-7.2,20.3,0,28.4c74,74.2,74,194.3,0,268.5
	c-8.8,7.8-9.6,21.3-1.7,30.1s21.3,9.6,30.1,1.7c0.6-0.5,1.2-1.1,1.7-1.7C534.4,329.6,534.4,182.4,443.7,91.6z"/>
<path class="st0" d="M386,155.6c-8.2-8.5-21.7-8.7-30.2-0.5s-8.7,21.7-0.5,30.2c0.2,0.2,0.3,0.4,0.5,0.5
	c38.7,38.8,38.7,101.7,0,140.5c-8.5,8.2-8.7,21.7-0.5,30.2c8.2,8.5,21.7,8.7,30.2,0.5c0.2-0.2,0.4-0.3,0.5-0.5
	C441.3,300.9,441.3,211.1,386,155.6z"/>
<path class="st0" d="M294.8,4.4C230,16.6,172.3,53.2,133.7,106.7h-27.1C47.8,106.7,0.1,154.5,0,213.3v85.3
	c0.1,58.9,47.8,106.6,106.7,106.7h27.1c38.6,53.5,96.3,90.1,161.1,102.3c11.6,2.1,22.7-5.5,24.8-17.1c0.2-1.3,0.4-2.6,0.4-3.9V25.4
	c0-11.8-9.6-21.3-21.3-21.3C297.4,4.1,296.1,4.2,294.8,4.4z"/>
</svg>
